<svg width="36" height="36" viewBox="0 0 36 36" fill="none" xmlns="http://www.w3.org/2000/svg">
<g clip-path="url(#clip0_2_110)">
<path d="M0.24607 23.8878L3.92318 30.1158C4.1673 30.5289 4.569 30.8302 5.03997 30.9534C5.51093 31.0766 6.01259 31.0116 6.43464 30.7728L9.00126 29.322C10.0676 30.1446 11.2461 30.8196 12.4853 31.3236V34.2C12.4853 34.6774 12.679 35.1352 13.0238 35.4728C13.3686 35.8104 13.8363 36 14.3239 36H21.6781C22.1657 36 22.6333 35.8104 22.9781 35.4728C23.3229 35.1352 23.5166 34.6774 23.5166 34.2V31.3236C24.7655 30.8145 25.9377 30.1411 27.0007 29.322L29.5673 30.7728C30.4443 31.2678 31.5732 30.9708 32.0788 30.1158L35.7559 23.8878C35.9979 23.4742 36.0631 22.9837 35.9374 22.5231C35.8117 22.0626 35.5053 21.6693 35.0848 21.429L32.5623 20.0016C32.7594 18.6741 32.7582 17.3256 32.5587 15.9984L35.0811 14.571C35.9563 14.076 36.2597 12.969 35.7522 12.1122L32.0751 5.8842C31.831 5.47109 31.4293 5.16982 30.9583 5.04661C30.4874 4.92341 29.9857 4.98837 29.5636 5.2272L26.997 6.678C25.9353 5.85788 24.7637 5.18439 23.5148 4.6764V1.8C23.5148 1.32261 23.3211 0.864773 22.9763 0.527208C22.6315 0.189642 22.1639 0 21.6763 0H14.322C13.8344 0 13.3668 0.189642 13.022 0.527208C12.6772 0.864773 12.4835 1.32261 12.4835 1.8V4.6764C11.2346 5.18546 10.0624 5.85886 8.99942 6.678L6.43464 5.2272C6.22572 5.1087 5.99499 5.0317 5.75564 5.00059C5.5163 4.96947 5.27303 4.98487 5.03977 5.04589C4.8065 5.10691 4.58782 5.21236 4.39622 5.35621C4.20463 5.50006 4.04388 5.67947 3.92318 5.8842L0.24607 12.1122C0.00409357 12.5258 -0.0611539 13.0163 0.0645358 13.4769C0.190226 13.9374 0.496672 14.3306 0.917142 14.571L3.43964 15.9984C3.24132 17.3257 3.24132 18.6743 3.43964 20.0016L0.917142 21.429C0.0419901 21.924 -0.261371 23.031 0.24607 23.8878ZM17.9991 10.8C22.055 10.8 25.3534 14.0292 25.3534 18C25.3534 21.9708 22.055 25.2 17.9991 25.2C13.9433 25.2 10.6449 21.9708 10.6449 18C10.6449 14.0292 13.9433 10.8 17.9991 10.8Z" fill="#AA8500"/>
</g>
<defs>
<clipPath id="clip0_2_110">
<rect width="36" height="36" fill="white"/>
</clipPath>
</defs>
</svg>
